<svg xmlns="http://www.w3.org/2000/svg" width="19" height="21" fill="none" viewBox="0 0 19 21"><g filter="url(#a)"><path fill="#000" d="m14.68 1.97-1.3-1.3-5.7 5.72L1.98.68l-1.3 1.3 5.7 5.7-5.7 5.7 1.3 1.3 5.7-5.7 5.7 5.7 1.3-1.3-5.7-5.7 5.7-5.7Z"/><path stroke="#000" d="m8.62 8.03 5.35 5.36-.58.58-5.36-5.35-.35-.36-.35.36-5.36 5.35-.58-.58 5.35-5.36.35-.35-.35-.35-5.35-5.36.58-.58 5.36 5.35.35.35.35-.35L13.4 1.4l.58.58-5.35 5.36-.36.35.36.35Z"/></g><defs><filter id="a" width="22" height="22" x="-3.32" y=".68" color-interpolation-filters="sRGB" filterUnits="userSpaceOnUse"><feFlood flood-opacity="0" result="BackgroundImageFix"/><feColorMatrix in="SourceAlpha" result="hardAlpha" values="0 0 0 0 0 0 0 0 0 0 0 0 0 0 0 0 0 0 127 0"/><feOffset dy="4"/><feGaussianBlur stdDeviation="2"/><feComposite in2="hardAlpha" operator="out"/><feColorMatrix values="0 0 0 0 0 0 0 0 0 0 0 0 0 0 0 0 0 0 0.25 0"/><feBlend in2="BackgroundImageFix" result="effect1_dropShadow_81902_332"/><feBlend in="SourceGraphic" in2="effect1_dropShadow_81902_332" result="shape"/></filter></defs></svg>